<svg width="298" height="103" viewBox="0 0 298 103" fill="none" xmlns="http://www.w3.org/2000/svg">
<path d="M249.682 5.37125L296 5.37126L296 101L2.00002 101L2.00002 5.37123L48.1368 5.37124" stroke="#212121" stroke-width="2.2492" stroke-miterlimit="10"/>
<path d="M75.2532 39.7534L75.2532 39.6686C75.2532 38.967 74.6596 38.3887 73.9391 38.3887L62.3597 38.3887C61.6395 38.3887 61.0458 38.967 61.0458 39.6686L61.0458 67.1713C61.0458 67.8731 61.6395 68.4512 62.3597 68.4512L62.4863 68.4512C63.2065 68.4512 63.7923 67.8731 63.7923 67.1713L63.7923 41.4807C63.7923 41.1491 63.9189 41.0256 64.2989 41.0256L73.9391 41.0256C74.6596 41.0256 75.2532 40.4473 75.2532 39.7534Z" fill="#212121"/>
<path d="M96.4649 65.7681L83.152 65.7681C82.7721 65.7681 82.6852 65.6448 82.6852 65.2746L82.6852 54.8195C82.6852 54.4492 82.8118 54.3644 83.2392 54.3644L94.0589 54.3644C94.7791 54.3644 95.3648 53.7863 95.3648 53.0924L95.3648 53.0076C95.3648 52.3058 94.7791 51.7277 94.0589 51.7277L83.152 51.7277C82.7721 51.7277 82.6852 51.6042 82.6852 51.1955L82.6852 41.4807C82.6852 41.1491 82.8118 41.0256 83.2392 41.0256L95.6656 41.0256C96.3858 41.0256 96.9717 40.4473 96.9717 39.7534L96.9717 39.6686C96.9717 38.967 96.3858 38.3887 95.6656 38.3887L81.2525 38.3887C80.5323 38.3887 79.9861 38.967 79.9861 39.6686L79.9861 67.1713C79.9861 67.8731 80.5323 68.4512 81.2525 68.4512L96.4649 68.4512C97.1854 68.4512 97.779 67.8731 97.779 67.1713L97.779 67.048C97.779 66.3464 97.1854 65.7681 96.4649 65.7681Z" fill="#212121"/>
<path d="M124.365 38.3887L124.239 38.3887C123.519 38.3887 122.925 38.967 122.925 39.6686L122.925 51.319C122.925 51.5271 122.759 51.7277 122.545 51.7277L106.778 51.7277C106.565 51.7277 106.398 51.5271 106.398 51.319L106.398 39.6686C106.398 38.967 105.805 38.3887 105.092 38.3887L104.966 38.3887C104.246 38.3887 103.652 38.967 103.652 39.6686L103.652 67.1713C103.652 67.8731 104.246 68.4512 104.966 68.4512L105.092 68.4512C105.805 68.4512 106.398 67.8731 106.398 67.1713L106.398 54.7808C106.398 54.5341 106.565 54.3644 106.778 54.3644L122.545 54.3644C122.759 54.3644 122.925 54.5341 122.925 54.7808L122.925 67.1713C122.925 67.8731 123.519 68.4512 124.239 68.4512L124.365 68.4512C125.078 68.4512 125.671 67.8731 125.671 67.1713L125.671 39.6686C125.671 38.967 125.078 38.3887 124.365 38.3887Z" fill="#212121"/>
<path d="M149.005 65.7681L135.692 65.7681C135.312 65.7681 135.225 65.6448 135.225 65.2746L135.225 54.8195C135.225 54.4492 135.351 54.3644 135.771 54.3644L146.59 54.3644C147.311 54.3644 147.904 53.7863 147.904 53.0924L147.904 53.0076C147.904 52.3058 147.311 51.7277 146.59 51.7277L135.692 51.7277C135.312 51.7277 135.225 51.6042 135.225 51.1955L135.225 41.4807C135.225 41.1491 135.351 41.0256 135.771 41.0256L148.197 41.0256C148.918 41.0256 149.511 40.4473 149.511 39.7534L149.511 39.6686C149.511 38.967 148.918 38.3887 148.197 38.3887L133.784 38.3887C133.072 38.3887 132.518 38.967 132.518 39.6686L132.518 67.1713C132.518 67.8731 133.072 68.4512 133.784 68.4512L149.005 68.4512C149.725 68.4512 150.311 67.8731 150.311 67.1713L150.311 67.048C150.311 66.3464 149.725 65.7681 149.005 65.7681Z" fill="#212121"/>
<path d="M170.684 52.6375C169.758 52.0592 169.885 51.9823 170.645 51.3576C172.417 49.9621 173.684 47.9883 173.684 45.6365C173.684 41.3112 169.125 37.8955 164.471 37.8955C162.065 37.8955 159.611 38.759 157.878 40.2857C156.524 41.4808 157.965 43.3311 159.611 42.136C161.004 41.1106 162.698 40.3242 164.471 40.3242C167.684 40.3242 171.151 42.6759 171.151 45.6365C171.151 48.5587 168.492 50.9489 165.278 50.9489L159.951 50.9489C159.231 50.9489 158.637 51.5272 158.637 52.2288L158.637 52.3523C158.637 53.0462 159.231 53.6245 159.951 53.6245L165.278 53.6245C169.291 53.6245 172.378 56.0532 172.378 59.9623C172.378 63.8792 168.492 66.5162 164.471 66.5162C161.899 66.5162 159.485 65.3211 157.878 63.5861C156.572 62.1444 154.664 63.6324 155.812 65.0279C157.751 67.4568 161.004 68.9835 164.471 68.9835C169.885 68.9835 174.911 65.2362 174.911 59.9623C174.911 56.7163 173.177 54.2028 170.684 52.6375Z" fill="#212121"/>
<path d="M201.836 68.4512C202.557 68.4512 203.142 67.8731 203.142 67.1713L203.142 39.7073C203.142 39.1753 202.762 38.7202 202.256 38.5122C201.662 38.2654 200.99 38.435 200.61 38.967C200.61 38.967 185.437 60.4634 184.803 61.3654C184.123 62.314 183.743 62.1443 183.743 60.8721C183.743 59.5922 183.743 39.6686 183.743 39.6686C183.743 38.967 183.157 38.3887 182.437 38.3887L182.31 38.3887C181.59 38.3887 180.996 38.967 180.996 39.6686L180.996 67.1328C180.996 67.5415 181.337 68.1583 181.804 68.3202C182.437 68.5747 183.11 68.4512 183.489 67.9115C183.489 67.9115 198.71 46.338 199.47 45.3048C200.19 44.2409 200.396 44.6109 200.396 45.6751C200.396 46.7467 200.396 67.1713 200.396 67.1713C200.396 67.8731 200.99 68.4512 201.71 68.4512L201.836 68.4512Z" fill="#212121"/>
<path d="M225.336 37.8955C216.503 37.8955 209.356 44.8117 209.356 53.4162C209.356 61.9825 216.503 68.9835 225.336 68.9835C229.309 68.9835 232.857 67.5416 235.562 65.2362C235.689 65.1128 235.99 64.7812 235.99 64.334C235.99 64.126 235.99 62.6841 235.99 61.6971C235.99 61.2423 235.689 61.2038 235.435 61.5275C233.155 64.5347 229.523 66.5162 225.336 66.5162C218.023 66.5162 212.063 60.5407 212.063 53.4162C212.063 46.2997 218.023 40.3705 225.336 40.3705C229.523 40.3705 233.155 42.3057 235.435 45.305C235.689 45.6365 235.99 45.5981 235.99 45.1046C235.99 44.1175 235.99 42.7144 235.99 42.4676C235.99 42.0589 235.689 41.6889 235.562 41.6041C232.944 39.422 229.309 37.8955 225.336 37.8955Z" fill="#212121"/>
<path d="M81.9656 2.60645L84.7043 8.87506L87.4982 2.60645L88.4796 2.60645L84.9022 10.525C84.7595 10.8489 84.6067 11.1161 84.4431 11.327C84.2847 11.5377 84.1026 11.7073 83.8969 11.8357C83.6964 11.9642 83.4722 12.0543 83.2242 12.1057C82.9708 12.1571 82.686 12.1828 82.3694 12.1828C82.2533 12.1828 82.1372 12.1749 82.0211 12.1595C81.905 12.1492 81.7915 12.1338 81.6808 12.1134C81.5752 12.098 81.4776 12.0774 81.388 12.0517C81.2982 12.031 81.2242 12.0079 81.1662 11.9822L81.4671 11.2035C81.599 11.2549 81.7494 11.2987 81.9181 11.3347C82.0924 11.3705 82.2611 11.3885 82.4246 11.3885C82.8099 11.3885 83.1317 11.3114 83.3904 11.1574C83.6489 10.9978 83.8599 10.7333 84.0235 10.3631L84.1739 9.96996L80.9525 2.60645L81.9656 2.60645Z" fill="#212121"/>
<path d="M92.0968 5.49015L92.0968 2.60645L93.0307 2.60645L93.0307 5.16628C93.0307 5.65473 93.0623 6.06342 93.1256 6.39235C93.1889 6.72129 93.2999 6.98342 93.4581 7.17876C93.6112 7.3741 93.8222 7.51275 94.0912 7.59515C94.3604 7.68238 94.7007 7.7261 95.1122 7.7261C95.5029 7.7261 95.9223 7.68501 96.3708 7.60283C96.8245 7.52066 97.26 7.41014 97.6767 7.27127L97.6767 2.60645L98.6344 2.60645L98.6344 11.9822L97.6925 11.9822L97.6925 8.01153C97.2072 8.16556 96.735 8.28905 96.2759 8.38155C95.8115 8.469 95.3683 8.51273 94.946 8.51273C94.4395 8.51273 94.007 8.45603 93.648 8.34309C93.2841 8.23499 92.9886 8.05767 92.7615 7.81092C92.5293 7.56943 92.3606 7.25588 92.255 6.87026C92.1496 6.48991 92.0968 6.02981 92.0968 5.49015Z" fill="#212121"/>
<path d="M109.32 11.9822L103.629 11.9822L103.629 2.60645L109.32 2.60645L109.32 3.43152L104.563 3.43152L104.563 6.60044L108.655 6.60044L108.655 7.43321L104.563 7.43321L104.563 11.1495L109.32 11.1495L109.32 11.9822Z" fill="#212121"/>
<path d="M114.821 3.40845L114.821 6.66218L116.8 6.66218C117.433 6.66218 117.971 6.7136 118.414 6.81643C118.852 6.92432 119.209 7.08626 119.483 7.30203C119.763 7.51275 119.963 7.7828 120.084 8.11173C120.211 8.44066 120.274 8.82628 120.274 9.26815C120.274 10.1677 119.982 10.8462 119.396 11.3037C118.816 11.7561 117.95 11.9822 116.8 11.9822L113.879 11.9822L113.879 2.60645L119.689 2.60645L119.689 3.40845L114.821 3.40845ZM119.277 9.28375C119.277 8.92889 119.227 8.63599 119.127 8.40462C119.021 8.17346 118.863 7.98582 118.652 7.8419C118.441 7.70303 118.172 7.60547 117.845 7.54878C117.517 7.48725 117.132 7.45628 116.689 7.45628L114.821 7.45628L114.821 11.1804L116.459 11.1804C116.903 11.1804 117.298 11.1495 117.647 11.0879C118 11.0312 118.296 10.9311 118.533 10.7871C118.776 10.6432 118.961 10.4479 119.087 10.2011C119.214 9.95963 119.277 9.65377 119.277 9.28375Z" fill="#212121"/>
<path d="M131.197 11.9822L130.255 11.9822L130.255 7.54878L125.569 7.54878L125.569 11.9822L124.627 11.9822L124.627 2.60645L125.569 2.60645L125.569 6.71601L130.255 6.71602L130.255 2.60645L131.197 2.60645L131.197 11.9822Z" fill="#212121"/>
<path d="M144.011 11.9822L144.011 2.60645L144.953 2.60645L144.953 11.9822L144.011 11.9822ZM138.724 11.9822L136.175 11.9822L136.175 2.60645L137.117 2.60645L137.117 6.33061L138.692 6.33061C139.336 6.33061 139.882 6.38972 140.331 6.50793C140.774 6.62615 141.138 6.80347 141.423 7.03989C141.702 7.27632 141.903 7.57207 142.024 7.92671C142.151 8.28135 142.214 8.6951 142.214 9.16795C142.214 10.1396 141.919 10.8515 141.328 11.3037C140.731 11.7561 139.863 11.9822 138.724 11.9822ZM141.209 9.15257C141.209 8.7619 141.159 8.43802 141.059 8.18116C140.964 7.92407 140.811 7.71841 140.599 7.56416C140.388 7.41013 140.117 7.29961 139.784 7.23281C139.447 7.17107 139.043 7.14009 138.573 7.14009L137.117 7.14009L137.117 11.1804L138.668 11.1804C139.09 11.1804 139.46 11.1444 139.776 11.0726C140.093 11.0005 140.359 10.8823 140.576 10.7177C140.787 10.5533 140.945 10.3426 141.051 10.0855C141.156 9.82846 141.209 9.51754 141.209 9.15257Z" fill="#212121"/>
<path d="M151.071 11.9818L149.939 11.9818L149.939 2.60597L150.85 2.60597L150.85 10.6788L155.393 2.60597L156.754 2.60597L156.754 11.9818L155.844 11.9818L155.844 3.5853L151.071 11.9818ZM154.554 8.06798e-07L155.496 9.71493e-07C155.49 0.215774 155.448 0.424073 155.369 0.624465C155.295 0.825076 155.171 1.0024 154.997 1.15643C154.823 1.31595 154.596 1.44185 154.316 1.53436C154.031 1.62686 153.688 1.67301 153.287 1.67301C152.923 1.67301 152.609 1.62686 152.346 1.53436C152.076 1.44185 151.855 1.31595 151.681 1.15642C151.507 1.0024 151.38 0.825075 151.301 0.624464C151.216 0.424072 151.171 0.215773 151.166 2.14489e-07L152.092 3.76418e-07C152.135 0.349587 152.245 0.621827 152.425 0.817165C152.609 1.00745 152.892 1.1026 153.271 1.1026C153.504 1.1026 153.696 1.08194 153.849 1.04085C154.002 0.994492 154.129 0.925278 154.229 0.832773C154.324 0.740267 154.395 0.624467 154.443 0.485819C154.496 0.352004 154.533 0.190065 154.554 8.06798e-07Z" fill="#212121"/>
<path d="M174.341 11.9822L167.708 11.9822L167.708 2.60645L168.65 2.60645L168.65 11.1495L173.145 11.1495L173.145 2.60645L174.087 2.60645L174.087 11.1804L175.267 11.1804L175.267 13.7633L174.341 13.7633L174.341 11.9822Z" fill="#212121"/>
<path d="M184.995 11.9822L179.296 11.9822L179.296 2.60645L184.995 2.60645L184.995 3.43152L180.23 3.43152L180.23 6.60044L184.322 6.60044L184.322 7.43321L180.23 7.43321L180.23 11.1495L184.995 11.1495L184.995 11.9822Z" fill="#212121"/>
<path d="M196.115 11.9822L195.181 11.9822L195.181 7.54878L190.487 7.54878L190.487 11.9822L189.553 11.9822L189.553 2.60645L190.487 2.60645L190.487 6.71601L195.181 6.71602L195.181 2.60645L196.115 2.60645L196.115 11.9822Z" fill="#212121"/>
<path d="M207.568 3.43152L204.26 3.43152L204.26 11.9822L203.318 11.9822L203.318 3.43152L200.018 3.43152L200.018 2.60645L207.568 2.60645L207.568 3.43152Z" fill="#212121"/>
<path d="M217.366 5.53652C217.366 6.10188 217.3 6.58505 217.168 6.98606C217.031 7.38179 216.825 7.70567 216.551 7.95747C216.277 8.20928 215.931 8.39188 215.514 8.50482C215.097 8.61798 214.604 8.67445 214.034 8.67445L212.427 8.67445L212.427 11.9822L211.494 11.9822L211.494 2.60645L214.153 2.60645C215.261 2.60645 216.074 2.85078 216.591 3.33902C217.108 3.8222 217.366 4.55477 217.366 5.53652ZM216.361 5.55958C216.361 5.15353 216.308 4.81427 216.203 4.5418C216.097 4.26934 215.947 4.05094 215.752 3.88636C215.557 3.72706 215.316 3.61148 215.031 3.53941C214.747 3.46756 214.425 3.43152 214.066 3.43152L212.427 3.43152L212.427 7.84189L213.884 7.8419C214.316 7.8419 214.688 7.80586 215 7.73379C215.311 7.667 215.567 7.54878 215.768 7.37915C215.968 7.20952 216.116 6.97837 216.211 6.68525C216.311 6.39236 216.361 6.01706 216.361 5.55958Z" fill="#212121"/>
</svg>
