<svg width="298" height="140" viewBox="0 0 298 140" fill="none" xmlns="http://www.w3.org/2000/svg">
<path d="M48.3182 132.661H2V2H296V132.661H249.863" stroke="#212121" stroke-width="2.2492" stroke-miterlimit="10"/>
<path d="M76.2175 48.2841V48.1682C76.2175 47.2096 75.6239 46.4194 74.9035 46.4194H63.324C62.6038 46.4194 62.0102 47.2096 62.0102 48.1682V85.7461C62.0102 86.705 62.6038 87.4949 63.324 87.4949H63.4506C64.1708 87.4949 64.7567 86.705 64.7567 85.7461V50.6442C64.7567 50.1911 64.8832 50.0224 65.2632 50.0224H74.9035C75.6239 50.0224 76.2175 49.2322 76.2175 48.2841Z" fill="#212121"/>
<path d="M97.4292 83.8289H84.1163C83.7364 83.8289 83.6494 83.6605 83.6494 83.1546V68.8694C83.6494 68.3636 83.776 68.2477 84.2034 68.2477H95.0232C95.7434 68.2477 96.329 67.4578 96.329 66.5097V66.3938C96.329 65.4349 95.7434 64.645 95.0232 64.645H84.1163C83.7364 64.645 83.6494 64.4763 83.6494 63.9179V50.6442C83.6494 50.1911 83.776 50.0224 84.2034 50.0224H96.6299C97.3501 50.0224 97.9359 49.2322 97.9359 48.2841V48.1682C97.9359 47.2096 97.3501 46.4194 96.6299 46.4194H82.2168C81.4966 46.4194 80.9504 47.2096 80.9504 48.1682V85.7461C80.9504 86.705 81.4966 87.4949 82.2168 87.4949H97.4292C98.1496 87.4949 98.7433 86.705 98.7433 85.7461V85.5777C98.7433 84.6191 98.1496 83.8289 97.4292 83.8289Z" fill="#212121"/>
<path d="M125.33 46.4194H125.203C124.483 46.4194 123.889 47.2096 123.889 48.1682V64.0866C123.889 64.3709 123.723 64.645 123.509 64.645H107.743C107.529 64.645 107.363 64.3709 107.363 64.0866V48.1682C107.363 47.2096 106.769 46.4194 106.057 46.4194H105.93C105.21 46.4194 104.616 47.2096 104.616 48.1682V85.7461C104.616 86.705 105.21 87.4949 105.93 87.4949H106.057C106.769 87.4949 107.363 86.705 107.363 85.7461V68.8166C107.363 68.4795 107.529 68.2477 107.743 68.2477H123.509C123.723 68.2477 123.889 68.4795 123.889 68.8166V85.7461C123.889 86.705 124.483 87.4949 125.203 87.4949H125.33C126.042 87.4949 126.636 86.705 126.636 85.7461V48.1682C126.636 47.2096 126.042 46.4194 125.33 46.4194Z" fill="#212121"/>
<path d="M149.969 83.8289H136.656C136.276 83.8289 136.189 83.6605 136.189 83.1546V68.8694C136.189 68.3636 136.316 68.2477 136.735 68.2477H147.555C148.275 68.2477 148.869 67.4578 148.869 66.5097V66.3938C148.869 65.4349 148.275 64.645 147.555 64.645H136.656C136.276 64.645 136.189 64.4763 136.189 63.9179V50.6442C136.189 50.1911 136.316 50.0224 136.735 50.0224H149.161C149.882 50.0224 150.475 49.2322 150.475 48.2841V48.1682C150.475 47.2096 149.882 46.4194 149.161 46.4194H134.748C134.036 46.4194 133.482 47.2096 133.482 48.1682V85.7461C133.482 86.705 134.036 87.4949 134.748 87.4949H149.969C150.689 87.4949 151.275 86.705 151.275 85.7461V85.5777C151.275 84.6191 150.689 83.8289 149.969 83.8289Z" fill="#212121"/>
<path d="M171.648 65.8881C170.722 65.0979 170.849 64.9928 171.609 64.1393C173.382 62.2326 174.648 59.5357 174.648 56.3224C174.648 50.4126 170.089 45.7456 165.435 45.7456C163.029 45.7456 160.575 46.9255 158.842 49.0114C157.489 50.6443 158.929 53.1725 160.575 51.5396C161.968 50.1385 163.662 49.064 165.435 49.064C168.649 49.064 172.115 52.2772 172.115 56.3224C172.115 60.3151 169.456 63.5809 166.242 63.5809H160.916C160.195 63.5809 159.602 64.3711 159.602 65.3297V65.4984C159.602 66.4465 160.195 67.2367 160.916 67.2367H166.242C170.255 67.2367 173.342 70.5551 173.342 75.8963C173.342 81.2481 169.456 84.851 165.435 84.851C162.863 84.851 160.449 83.2181 158.842 80.8476C157.536 78.8778 155.629 80.9109 156.776 82.8176C158.715 86.1363 161.968 88.2222 165.435 88.2222C170.849 88.2222 175.875 83.1022 175.875 75.8963C175.875 71.4611 174.142 68.0269 171.648 65.8881Z" fill="#212121"/>
<path d="M202.801 87.4949C203.521 87.4949 204.107 86.705 204.107 85.7461V48.2211C204.107 47.4942 203.727 46.8725 203.22 46.5882C202.627 46.251 201.954 46.4828 201.574 47.2096C201.574 47.2096 186.401 76.581 185.768 77.8134C185.087 79.1094 184.707 78.8777 184.707 77.1394C184.707 75.3906 184.707 48.1682 184.707 48.1682C184.707 47.2096 184.122 46.4194 183.401 46.4194H183.275C182.554 46.4194 181.961 47.2096 181.961 48.1682V85.6936C181.961 86.252 182.301 87.0947 182.768 87.316C183.401 87.6637 184.074 87.4949 184.454 86.7576C184.454 86.7576 199.674 57.2809 200.434 55.8692C201.154 54.4156 201.36 54.9211 201.36 56.3751C201.36 57.8393 201.36 85.7461 201.36 85.7461C201.36 86.705 201.954 87.4949 202.674 87.4949H202.801Z" fill="#212121"/>
<path d="M226.3 45.7456C217.468 45.7456 210.321 55.1954 210.321 66.9521C210.321 78.6566 217.468 88.2222 226.3 88.2222C230.273 88.2222 233.821 86.2522 236.526 83.1022C236.653 82.9335 236.954 82.4805 236.954 81.8695C236.954 81.5852 236.954 79.6152 236.954 78.2666C236.954 77.6451 236.653 77.5926 236.399 78.0348C234.12 82.1436 230.487 84.851 226.3 84.851C218.987 84.851 213.027 76.6865 213.027 66.9521C213.027 57.2285 218.987 49.1273 226.3 49.1273C230.487 49.1273 234.12 51.7714 236.399 55.8694C236.653 56.3224 236.954 56.2699 236.954 55.5956C236.954 54.247 236.954 52.3298 236.954 51.9926C236.954 51.4342 236.653 50.9286 236.526 50.8128C233.908 47.8312 230.273 45.7456 226.3 45.7456Z" fill="#212121"/>
<path d="M81.6468 124.756L84.3855 133.321L87.1795 124.756H88.1608L84.5834 135.575C84.4408 136.018 84.2879 136.383 84.1243 136.671C83.9659 136.959 83.7838 137.191 83.5781 137.366C83.3776 137.542 83.1534 137.665 82.9054 137.735C82.652 137.805 82.3672 137.84 82.0506 137.84C81.9345 137.84 81.8184 137.83 81.7023 137.809C81.5862 137.795 81.4727 137.773 81.362 137.746C81.2564 137.725 81.1588 137.696 81.0692 137.661C80.9794 137.633 80.9054 137.601 80.8475 137.566L81.1483 136.502C81.2802 136.573 81.4306 136.632 81.5993 136.682C81.7736 136.731 81.9423 136.755 82.1058 136.755C82.4911 136.755 82.8129 136.65 83.0716 136.439C83.3301 136.221 83.5411 135.86 83.7047 135.354L83.8551 134.817L80.6338 124.756H81.6468Z" fill="#212121"/>
<path d="M91.778 128.696V124.756H92.7119V128.253C92.7119 128.921 92.7436 129.479 92.8068 129.929C92.8701 130.378 92.9811 130.736 93.1393 131.003C93.2924 131.27 93.5034 131.46 93.7724 131.572C94.0416 131.691 94.3819 131.751 94.7935 131.751C95.1841 131.751 95.6035 131.695 96.0521 131.583C96.5058 131.47 96.9412 131.319 97.3579 131.13V124.756H98.3157V137.566H97.3737V132.141C96.8884 132.351 96.4162 132.52 95.9571 132.647C95.4927 132.766 95.0495 132.826 94.6272 132.826C94.1207 132.826 93.6882 132.748 93.3292 132.594C92.9653 132.446 92.6698 132.204 92.4427 131.867C92.2105 131.537 92.0418 131.109 91.9362 130.582C91.8308 130.062 91.778 129.433 91.778 128.696Z" fill="#212121"/>
<path d="M109.002 137.566H103.311V124.756H109.002V125.883H104.245V130.213H108.337V131.351H104.245V136.428H109.002V137.566Z" fill="#212121"/>
<path d="M114.502 125.852V130.297H116.481C117.114 130.297 117.652 130.368 118.096 130.508C118.534 130.656 118.89 130.877 119.164 131.172C119.444 131.46 119.644 131.828 119.766 132.278C119.892 132.727 119.956 133.254 119.956 133.858C119.956 135.087 119.663 136.014 119.077 136.639C118.497 137.257 117.631 137.566 116.481 137.566H113.56V124.756H119.37V125.852H114.502ZM118.958 133.879C118.958 133.394 118.908 132.994 118.808 132.678C118.702 132.362 118.544 132.106 118.333 131.909C118.122 131.72 117.853 131.586 117.526 131.509C117.198 131.425 116.813 131.382 116.37 131.382H114.502V136.471H116.141C116.584 136.471 116.98 136.428 117.328 136.344C117.681 136.267 117.977 136.13 118.214 135.933C118.457 135.737 118.642 135.47 118.768 135.133C118.895 134.803 118.958 134.385 118.958 133.879Z" fill="#212121"/>
<path d="M130.878 137.566H129.936V131.509H125.25V137.566H124.308V124.756H125.25V130.371H129.936V124.756H130.878V137.566Z" fill="#212121"/>
<path d="M143.692 137.566V124.756H144.634V137.566H143.692ZM138.405 137.566H135.856V124.756H136.798V129.844H138.373C139.017 129.844 139.563 129.925 140.012 130.087C140.455 130.248 140.819 130.49 141.104 130.813C141.384 131.136 141.584 131.541 141.706 132.025C141.832 132.51 141.895 133.075 141.895 133.721C141.895 135.049 141.6 136.021 141.009 136.639C140.413 137.257 139.545 137.566 138.405 137.566ZM140.89 133.7C140.89 133.166 140.84 132.724 140.74 132.373C140.645 132.022 140.492 131.741 140.281 131.53C140.07 131.319 139.798 131.168 139.466 131.077C139.128 130.993 138.724 130.95 138.255 130.95H136.798V136.471H138.35C138.772 136.471 139.141 136.422 139.458 136.323C139.774 136.225 140.041 136.063 140.257 135.839C140.468 135.614 140.626 135.326 140.732 134.975C140.837 134.624 140.89 134.199 140.89 133.7Z" fill="#212121"/>
<path d="M150.752 137.566H149.621V124.755H150.531V135.786L155.074 124.755H156.435V137.566H155.525V126.094L150.752 137.566ZM154.235 121.195H155.177C155.171 121.49 155.129 121.774 155.05 122.048C154.976 122.322 154.852 122.564 154.678 122.775C154.504 122.993 154.277 123.165 153.998 123.291C153.713 123.418 153.37 123.481 152.968 123.481C152.605 123.481 152.291 123.418 152.027 123.291C151.758 123.165 151.536 122.993 151.362 122.775C151.188 122.564 151.061 122.322 150.982 122.048C150.897 121.774 150.853 121.49 150.847 121.195H151.773C151.816 121.672 151.926 122.044 152.106 122.311C152.291 122.571 152.573 122.701 152.953 122.701C153.185 122.701 153.378 122.673 153.53 122.617C153.684 122.554 153.81 122.459 153.91 122.333C154.005 122.206 154.077 122.048 154.124 121.859C154.177 121.676 154.214 121.455 154.235 121.195Z" fill="#212121"/>
<path d="M174.022 137.566H167.389V124.756H168.331V136.428H172.827V124.756H173.768V136.471H174.948V140H174.022V137.566Z" fill="#212121"/>
<path d="M184.676 137.566H178.977V124.756H184.676V125.883H179.911V130.213H184.003V131.351H179.911V136.428H184.676V137.566Z" fill="#212121"/>
<path d="M195.796 137.566H194.862V131.509H190.169V137.566H189.235V124.756H190.169V130.371H194.862V124.756H195.796V137.566Z" fill="#212121"/>
<path d="M207.249 125.883H203.941V137.566H202.999V125.883H199.699V124.756H207.249V125.883Z" fill="#212121"/>
<path d="M217.047 128.759C217.047 129.532 216.982 130.192 216.85 130.74C216.713 131.281 216.507 131.723 216.232 132.067C215.958 132.411 215.612 132.661 215.195 132.815C214.779 132.97 214.285 133.047 213.715 133.047H212.109V137.566H211.175V124.756H213.834C214.942 124.756 215.755 125.09 216.272 125.757C216.789 126.417 217.047 127.418 217.047 128.759ZM216.042 128.791C216.042 128.236 215.99 127.772 215.884 127.4C215.779 127.028 215.628 126.73 215.433 126.505C215.238 126.287 214.998 126.129 214.713 126.031C214.428 125.932 214.106 125.883 213.747 125.883H212.109V131.909H213.565C213.998 131.909 214.37 131.86 214.681 131.762C214.992 131.67 215.248 131.509 215.449 131.277C215.649 131.045 215.797 130.729 215.892 130.329C215.992 129.929 216.042 129.416 216.042 128.791Z" fill="#212121"/>
</svg>
