<svg width="340" height="120" viewBox="0 0 340 120" fill="none" xmlns="http://www.w3.org/2000/svg">
<path d="M57.8722 112.681H6.28799V6.0979H333.714V112.681H282.332" stroke="#212121" stroke-width="2.2492" stroke-miterlimit="10"/>
<path d="M88.9435 43.8526V43.7581C88.9435 42.9761 88.2824 42.3315 87.48 42.3315H74.5841C73.782 42.3315 73.1208 42.9761 73.1208 43.7581V74.4112C73.1208 75.1934 73.782 75.8377 74.5841 75.8377H74.7251C75.5272 75.8377 76.1796 75.1934 76.1796 74.4112V45.7777C76.1796 45.4082 76.3206 45.2706 76.7437 45.2706H87.48C88.2824 45.2706 88.9435 44.626 88.9435 43.8526Z" fill="#212121"/>
<path d="M112.567 72.8473H97.7403C97.3172 72.8473 97.2204 72.7099 97.2204 72.2973V60.6445C97.2204 60.2319 97.3613 60.1373 97.8373 60.1373H109.887C110.689 60.1373 111.342 59.493 111.342 58.7196V58.6251C111.342 57.8429 110.689 57.1986 109.887 57.1986H97.7403C97.3172 57.1986 97.2204 57.0609 97.2204 56.6054V45.7777C97.2204 45.4082 97.3613 45.2706 97.8373 45.2706H111.677C112.479 45.2706 113.131 44.626 113.131 43.8526V43.7581C113.131 42.9761 112.479 42.3315 111.677 42.3315H95.6249C94.8228 42.3315 94.2145 42.9761 94.2145 43.7581V74.4112C94.2145 75.1934 94.8228 75.8377 95.6249 75.8377H112.567C113.369 75.8377 114.03 75.1934 114.03 74.4112V74.2738C114.03 73.4919 113.369 72.8473 112.567 72.8473Z" fill="#212121"/>
<path d="M143.639 42.3315H143.498C142.696 42.3315 142.035 42.9761 142.035 43.7581V56.7431C142.035 56.975 141.85 57.1986 141.612 57.1986H124.053C123.815 57.1986 123.63 56.975 123.63 56.7431V43.7581C123.63 42.9761 122.969 42.3315 122.175 42.3315H122.034C121.232 42.3315 120.571 42.9761 120.571 43.7581V74.4112C120.571 75.1934 121.232 75.8377 122.034 75.8377H122.175C122.969 75.8377 123.63 75.1934 123.63 74.4112V60.6014C123.63 60.3264 123.815 60.1373 124.053 60.1373H141.612C141.85 60.1373 142.035 60.3264 142.035 60.6014V74.4112C142.035 75.1934 142.696 75.8377 143.498 75.8377H143.639C144.433 75.8377 145.094 75.1934 145.094 74.4112V43.7581C145.094 42.9761 144.433 42.3315 143.639 42.3315Z" fill="#212121"/>
<path d="M171.08 72.8473H156.253C155.83 72.8473 155.733 72.7099 155.733 72.2973V60.6445C155.733 60.2319 155.874 60.1373 156.341 60.1373H168.391C169.193 60.1373 169.855 59.493 169.855 58.7196V58.6251C169.855 57.8429 169.193 57.1986 168.391 57.1986H156.253C155.83 57.1986 155.733 57.0609 155.733 56.6054V45.7777C155.733 45.4082 155.874 45.2706 156.341 45.2706H170.181C170.983 45.2706 171.644 44.626 171.644 43.8526V43.7581C171.644 42.9761 170.983 42.3315 170.181 42.3315H154.129C153.336 42.3315 152.719 42.9761 152.719 43.7581V74.4112C152.719 75.1934 153.336 75.8377 154.129 75.8377H171.08C171.882 75.8377 172.534 75.1934 172.534 74.4112V74.2738C172.534 73.4919 171.882 72.8473 171.08 72.8473Z" fill="#212121"/>
<path d="M195.224 58.2124C194.193 57.5679 194.334 57.4821 195.18 56.7859C197.155 55.2306 198.565 53.0306 198.565 50.4095C198.565 45.5887 193.488 41.7817 188.304 41.7817C185.625 41.7817 182.892 42.7442 180.962 44.4457C179.454 45.7777 181.059 47.84 182.892 46.508C184.444 45.3651 186.33 44.4886 188.304 44.4886C191.883 44.4886 195.744 47.1097 195.744 50.4095C195.744 53.6664 192.782 56.3304 189.204 56.3304H183.271C182.469 56.3304 181.808 56.975 181.808 57.7569V57.8946C181.808 58.6679 182.469 59.3125 183.271 59.3125H189.204C193.673 59.3125 197.11 62.0194 197.11 66.3764C197.11 70.7419 192.782 73.6809 188.304 73.6809C185.44 73.6809 182.751 72.3489 180.962 70.4152C179.507 68.8084 177.383 70.4669 178.661 72.0222C180.821 74.7293 184.444 76.4309 188.304 76.4309C194.334 76.4309 199.931 72.2544 199.931 66.3764C199.931 62.7585 198.001 59.9571 195.224 58.2124Z" fill="#212121"/>
<path d="M229.918 75.8377C230.721 75.8377 231.373 75.1934 231.373 74.4112V43.8012C231.373 43.2083 230.95 42.7011 230.386 42.4692C229.724 42.1942 228.975 42.3832 228.552 42.9761C228.552 42.9761 211.654 66.935 210.949 67.9403C210.191 68.9975 209.768 68.8084 209.768 67.3905C209.768 65.964 209.768 43.7581 209.768 43.7581C209.768 42.9761 209.115 42.3315 208.313 42.3315H208.172C207.37 42.3315 206.709 42.9761 206.709 43.7581V74.3684C206.709 74.8239 207.088 75.5113 207.608 75.6918C208.313 75.9754 209.062 75.8377 209.485 75.2363C209.485 75.2363 226.436 51.1915 227.283 50.04C228.085 48.8542 228.314 49.2666 228.314 50.4526C228.314 51.647 228.314 74.4112 228.314 74.4112C228.314 75.1934 228.975 75.8377 229.777 75.8377H229.918Z" fill="#212121"/>
<path d="M256.09 41.7817C246.253 41.7817 238.293 49.4901 238.293 59.0804C238.293 68.6279 246.253 76.4309 256.09 76.4309C260.514 76.4309 264.465 74.8239 267.478 72.2544C267.62 72.1168 267.955 71.7472 267.955 71.2488C267.955 71.0169 267.955 69.4099 267.955 68.3098C267.955 67.8029 267.62 67.76 267.337 68.1208C264.798 71.4724 260.753 73.6809 256.09 73.6809C247.945 73.6809 241.308 67.0209 241.308 59.0804C241.308 51.1486 247.945 44.5403 256.09 44.5403C260.753 44.5403 264.798 46.6971 267.337 50.0399C267.62 50.4095 267.955 50.3666 267.955 49.8166C267.955 48.7165 267.955 47.1526 267.955 46.8776C267.955 46.4221 267.62 46.0097 267.478 45.9151C264.562 43.483 260.514 41.7817 256.09 41.7817Z" fill="#212121"/>
<path d="M94.99 106.232L98.0401 113.219L101.152 106.232H102.245L98.2605 115.058C98.1017 115.419 97.9314 115.717 97.7493 115.952C97.5728 116.187 97.3701 116.376 97.141 116.519C96.9176 116.662 96.668 116.763 96.3917 116.82C96.1096 116.877 95.7924 116.906 95.4397 116.906C95.3104 116.906 95.1811 116.897 95.0518 116.88C94.9225 116.868 94.7962 116.851 94.6729 116.828C94.5552 116.811 94.4465 116.788 94.3468 116.76C94.2468 116.737 94.1644 116.711 94.0998 116.682L94.4349 115.814C94.5818 115.872 94.7493 115.92 94.9372 115.96C95.1313 116 95.3191 116.021 95.5013 116.021C95.9304 116.021 96.2887 115.935 96.5769 115.763C96.8648 115.585 97.0998 115.29 97.2819 114.878L97.4495 114.439L93.8618 106.232H94.99Z" fill="#212121"/>
<path d="M106.273 109.446V106.232H107.313V109.085C107.313 109.63 107.348 110.085 107.419 110.452C107.489 110.819 107.613 111.111 107.789 111.328C107.96 111.546 108.195 111.701 108.494 111.793C108.794 111.89 109.173 111.939 109.631 111.939C110.066 111.939 110.533 111.893 111.033 111.801C111.538 111.71 112.023 111.586 112.487 111.432V106.232H113.554V116.682H112.505V112.257C111.964 112.428 111.439 112.566 110.927 112.669C110.41 112.767 109.917 112.815 109.446 112.815C108.882 112.815 108.4 112.752 108.001 112.626C107.595 112.506 107.266 112.308 107.013 112.033C106.755 111.764 106.567 111.414 106.449 110.985C106.332 110.561 106.273 110.048 106.273 109.446Z" fill="#212121"/>
<path d="M125.455 116.682H119.117V106.232H125.455V107.152H120.157V110.684H124.714V111.612H120.157V115.754H125.455V116.682Z" fill="#212121"/>
<path d="M131.581 107.126V110.753H133.785C134.49 110.753 135.089 110.81 135.583 110.925C136.071 111.045 136.467 111.225 136.773 111.466C137.084 111.701 137.308 112.002 137.443 112.368C137.584 112.735 137.654 113.165 137.654 113.657C137.654 114.66 137.328 115.416 136.676 115.926C136.03 116.43 135.066 116.682 133.785 116.682H130.532V106.232H137.002V107.126H131.581ZM136.544 113.675C136.544 113.279 136.488 112.953 136.376 112.695C136.259 112.437 136.082 112.228 135.847 112.068C135.612 111.913 135.313 111.804 134.948 111.741C134.584 111.672 134.155 111.638 133.661 111.638H131.581V115.789H133.406C133.899 115.789 134.34 115.754 134.728 115.685C135.121 115.622 135.451 115.511 135.715 115.35C135.985 115.19 136.191 114.972 136.332 114.697C136.473 114.428 136.544 114.087 136.544 113.675Z" fill="#212121"/>
<path d="M149.818 116.682H148.769V111.741H143.551V116.682H142.502V106.232H143.551V110.813H148.769V106.232H149.818V116.682Z" fill="#212121"/>
<path d="M164.089 116.682V106.232H165.139V116.682H164.089ZM158.201 116.682H155.363V106.232H156.412V110.383H158.166C158.883 110.383 159.491 110.449 159.991 110.581C160.484 110.713 160.89 110.91 161.207 111.174C161.518 111.437 161.742 111.767 161.877 112.162C162.018 112.557 162.088 113.019 162.088 113.546C162.088 114.628 161.759 115.422 161.101 115.926C160.437 116.43 159.47 116.682 158.201 116.682ZM160.969 113.528C160.969 113.093 160.913 112.732 160.801 112.446C160.696 112.159 160.525 111.93 160.29 111.758C160.055 111.586 159.753 111.463 159.382 111.389C159.006 111.32 158.557 111.285 158.034 111.285H156.412V115.789H158.139C158.61 115.789 159.021 115.748 159.373 115.668C159.726 115.588 160.023 115.456 160.264 115.273C160.499 115.09 160.675 114.855 160.793 114.568C160.91 114.282 160.969 113.935 160.969 113.528Z" fill="#212121"/>
<path d="M171.952 116.682H170.692V106.232H171.706V115.23L176.765 106.232H178.282V116.682H177.268V107.324L171.952 116.682ZM175.831 103.328H176.88C176.874 103.568 176.827 103.801 176.739 104.024C176.657 104.247 176.519 104.445 176.325 104.617C176.131 104.795 175.878 104.935 175.567 105.038C175.249 105.141 174.867 105.193 174.42 105.193C174.015 105.193 173.666 105.141 173.372 105.038C173.072 104.935 172.825 104.795 172.631 104.617C172.437 104.445 172.296 104.247 172.208 104.024C172.114 103.801 172.064 103.568 172.058 103.328H173.09C173.137 103.718 173.26 104.021 173.46 104.239C173.666 104.451 173.98 104.557 174.403 104.557C174.661 104.557 174.876 104.534 175.046 104.488C175.217 104.436 175.358 104.359 175.47 104.256C175.575 104.153 175.655 104.024 175.708 103.869C175.766 103.72 175.808 103.54 175.831 103.328Z" fill="#212121"/>
<path d="M197.867 116.682H190.48V106.232H191.529V115.754H196.536V106.232H197.585V115.789H198.899V118.667H197.867V116.682Z" fill="#212121"/>
<path d="M209.733 116.682H203.386V106.232H209.733V107.152H204.426V110.684H208.984V111.612H204.426V115.754H209.733V116.682Z" fill="#212121"/>
<path d="M222.117 116.682H221.077V111.741H215.85V116.682H214.81V106.232H215.85V110.813H221.077V106.232H222.117V116.682Z" fill="#212121"/>
<path d="M234.873 107.152H231.188V116.682H230.139V107.152H226.464V106.232H234.873V107.152Z" fill="#212121"/>
<path d="M245.785 109.498C245.785 110.128 245.711 110.667 245.564 111.114C245.412 111.555 245.182 111.916 244.877 112.196C244.571 112.477 244.186 112.681 243.722 112.806C243.258 112.933 242.708 112.996 242.074 112.996H240.284V116.682H239.244V106.232H242.206C243.44 106.232 244.345 106.505 244.921 107.049C245.497 107.587 245.785 108.404 245.785 109.498ZM244.665 109.524C244.665 109.071 244.607 108.693 244.489 108.389C244.372 108.086 244.204 107.842 243.987 107.659C243.769 107.481 243.502 107.353 243.184 107.272C242.867 107.192 242.509 107.152 242.109 107.152H240.284V112.068H241.906C242.388 112.068 242.802 112.027 243.149 111.947C243.496 111.873 243.781 111.741 244.004 111.552C244.227 111.363 244.392 111.105 244.498 110.778C244.61 110.452 244.665 110.034 244.665 109.524Z" fill="#212121"/>
</svg>
