<svg width="298" height="103" viewBox="0 0 298 103" fill="none" xmlns="http://www.w3.org/2000/svg">
<path d="M48.3182 97.6287H2V2H296V97.6287H249.863" stroke="#0FEFFF" stroke-width="2.2492" stroke-miterlimit="10"/>
<path d="M63.3236 35.0098H74.9037C75.3604 35.0099 75.7172 35.377 75.7172 35.79V35.874C75.7172 36.2775 75.3623 36.6463 74.9037 36.6465H65.2631C65.0462 36.6465 64.754 36.6759 64.5297 36.8809C64.2923 37.098 64.2563 37.393 64.2563 37.6016V63.292C64.2563 63.7092 63.9032 64.0723 63.4506 64.0723H63.3236C62.8673 64.0721 62.5102 63.7052 62.5102 63.292V35.79C62.5102 35.377 62.8673 35.01 63.3236 35.0098Z" fill="#212121" stroke="#FF0C0C"/>
<path d="M82.217 35.0098H96.6301C97.0826 35.0099 97.4358 35.3731 97.4358 35.79V35.874C97.4358 36.2814 97.0845 36.6464 96.6301 36.6465H84.2033C83.9732 36.6465 83.6735 36.6729 83.4426 36.8691C83.1857 37.0876 83.1497 37.3928 83.1496 37.6016V47.3164C83.1496 47.5115 83.159 47.8222 83.3586 48.0586C83.5825 48.3236 83.9077 48.3486 84.1164 48.3486H95.0237C95.476 48.3489 95.8293 48.7118 95.8293 49.1289V49.2139C95.8291 49.621 95.4779 49.9851 95.0237 49.9854H84.2033C84.0018 49.9854 83.6925 49.9944 83.4553 50.1826C83.1775 50.4031 83.1496 50.731 83.1496 50.9404V61.3955C83.1496 61.5783 83.1601 61.8832 83.3684 62.1152C83.5915 62.3637 83.9072 62.3896 84.1164 62.3896H97.4289C97.8856 62.3896 98.2433 62.7559 98.2434 63.1689V63.292C98.2434 63.7053 97.8858 64.0723 97.4289 64.0723H82.217C81.7845 64.0723 81.4504 63.7294 81.4504 63.292V35.79C81.4504 35.3528 81.7846 35.0098 82.217 35.0098Z" fill="#212121" stroke="#FF0C0C"/>
<path d="M105.93 35.0098H106.057C106.503 35.0098 106.862 35.3749 106.862 35.79V47.4404C106.863 47.8716 107.203 48.3484 107.742 48.3486H123.509C124.049 48.3486 124.389 47.8717 124.39 47.4404V35.79C124.39 35.3768 124.747 35.0098 125.203 35.0098H125.33C125.777 35.01 126.136 35.3751 126.136 35.79V63.292C126.136 63.7071 125.777 64.072 125.33 64.0723H125.203C124.747 64.0723 124.39 63.7054 124.39 63.292V50.9023C124.39 50.4132 124.031 49.9854 123.509 49.9854H107.742C107.22 49.9856 106.862 50.4133 106.862 50.9023V63.292C106.862 63.7073 106.503 64.0723 106.057 64.0723H105.93C105.473 64.0721 105.116 63.7052 105.116 63.292V35.79C105.116 35.377 105.473 35.01 105.93 35.0098Z" fill="#212121" stroke="#FF0C0C"/>
<path d="M134.749 35.0098H149.162C149.618 35.0099 149.975 35.3769 149.975 35.79V35.874C149.975 36.2776 149.62 36.6464 149.162 36.6465H136.735C136.507 36.6465 136.209 36.6734 135.979 36.8711C135.725 37.0894 135.689 37.3929 135.689 37.6016V47.3164C135.689 47.5115 135.698 47.8222 135.898 48.0586C136.122 48.3237 136.447 48.3486 136.656 48.3486H147.555C148.012 48.3489 148.369 48.7157 148.369 49.1289V49.2139C148.368 49.6171 148.013 49.9851 147.555 49.9854H136.735C136.536 49.9854 136.228 49.9947 135.992 50.1846C135.717 50.4051 135.689 50.731 135.689 50.9404V61.3955C135.689 61.5783 135.7 61.8832 135.908 62.1152C136.131 62.3637 136.447 62.3896 136.656 62.3896H149.968C150.421 62.3896 150.775 62.752 150.775 63.1689V63.292C150.775 63.7092 150.421 64.0723 149.968 64.0723H134.749C134.322 64.0723 133.982 63.7273 133.982 63.292V35.79C133.982 35.3549 134.322 35.0098 134.749 35.0098Z" fill="#212121" stroke="#FF0C0C"/>
<path d="M165.435 34.5166C167.645 34.5166 169.838 35.3293 171.472 36.6533C173.106 37.977 174.148 39.7804 174.148 41.7578C174.148 43.7809 173.128 45.5259 171.61 46.8311L171.299 47.0859L171.291 47.0928C171.112 47.24 170.937 47.3811 170.811 47.5068C170.7 47.6179 170.516 47.8196 170.497 48.1035C170.477 48.4205 170.667 48.6421 170.805 48.7695C170.95 48.9034 171.153 49.0389 171.383 49.1826V49.1816C173.757 50.672 175.374 53.0384 175.374 56.083C175.374 60.9954 170.667 64.6045 165.435 64.6045C162.107 64.6045 159.003 63.1372 157.166 60.8369H157.167L157.163 60.8311L157.09 60.7363C156.94 60.5183 156.91 60.3312 156.927 60.1924C156.947 60.0276 157.039 59.8752 157.186 59.7666C157.445 59.576 157.915 59.5079 158.378 59.9482L158.471 60.043L158.475 60.0469C160.168 61.8744 162.711 63.1377 165.435 63.1377C167.549 63.1377 169.636 62.4454 171.204 61.2236C172.777 59.9976 173.842 58.222 173.842 56.083C173.842 53.9866 173.01 52.2624 171.623 51.0693C170.244 49.8825 168.347 49.2452 166.243 49.2451H160.915C160.457 49.245 160.102 48.877 160.102 48.4736V48.3496C160.102 47.9366 160.459 47.5704 160.915 47.5703H166.243C169.683 47.5702 172.616 45.0029 172.616 41.7578C172.616 40.072 171.63 38.6104 170.282 37.5918C168.931 36.5714 167.156 35.9453 165.435 35.9453C163.518 35.9453 161.723 36.7921 160.282 37.8525C159.634 38.323 159.163 38.1355 158.963 37.9023C158.758 37.6627 158.686 37.2123 159.172 36.7822C160.806 35.3433 163.139 34.5166 165.435 34.5166Z" fill="#212121" stroke="#FF0C0C"/>
<path d="M183.274 35.0098H183.401C183.854 35.0098 184.207 35.373 184.207 35.79V56.9932C184.207 57.329 184.231 57.6264 184.293 57.8652C184.347 58.0746 184.466 58.3849 184.773 58.5264C185.118 58.6849 185.435 58.5222 185.613 58.3896C185.758 58.2822 185.899 58.1339 186.037 57.96L186.174 57.7783L186.176 57.7734C186.493 57.3227 190.444 51.7245 194.317 46.2373C196.253 43.494 198.169 40.7784 199.601 38.749C200.317 37.7344 200.913 36.8913 201.329 36.3018C201.537 36.007 201.701 35.7758 201.812 35.6182C201.868 35.5394 201.91 35.4792 201.939 35.4385C201.954 35.4181 201.964 35.4019 201.971 35.3916C201.975 35.3866 201.977 35.3824 201.979 35.3799L201.98 35.3779L201.981 35.3789C202.189 35.0886 202.535 34.9646 202.881 35.0469L203.028 35.0947L203.03 35.0957C203.399 35.2472 203.607 35.5479 203.607 35.8281V63.292C203.607 63.7092 203.253 64.0723 202.801 64.0723H202.675C202.218 64.0723 201.86 63.7054 201.86 63.292V41.7959C201.86 41.5199 201.847 41.2618 201.808 41.0498C201.789 40.9439 201.76 40.8307 201.713 40.7256C201.667 40.6241 201.587 40.4897 201.441 40.3945C201.076 40.1556 200.722 40.372 200.567 40.498C200.392 40.6412 200.214 40.8612 200.031 41.1299C199.646 41.6534 195.647 47.311 191.751 52.8281C189.801 55.5894 187.874 58.3187 186.435 60.3574C185.716 61.3767 185.119 62.2235 184.701 62.8154C184.492 63.1114 184.328 63.3437 184.217 63.502C184.161 63.5811 184.117 63.6418 184.089 63.6826C184.074 63.7028 184.064 63.7182 184.056 63.7285C184.053 63.7337 184.049 63.7376 184.048 63.7402C184.047 63.7415 184.046 63.7425 184.046 63.7432V63.7441L184.045 63.7451C183.829 64.051 183.426 64.1669 182.955 63.9775L182.943 63.9727L182.931 63.9688L182.858 63.9326C182.78 63.8841 182.691 63.798 182.611 63.6719C182.504 63.5029 182.461 63.3386 182.461 63.2539V35.79L182.465 35.7129C182.505 35.3322 182.846 35.01 183.274 35.0098Z" fill="#212121" stroke="#FF0C0C"/>
<path d="M226.3 34.5166C230.147 34.5166 233.67 35.9958 236.206 38.1094L236.227 38.126L236.248 38.1406C236.229 38.1277 236.239 38.1304 236.27 38.166C236.296 38.1965 236.328 38.2395 236.358 38.29C236.42 38.3965 236.454 38.5029 236.454 38.5889V40.6934C234.069 37.8188 230.443 35.9912 226.3 35.9912C218.717 35.9913 212.528 42.1382 212.528 49.5371C212.528 56.9415 218.715 63.1376 226.3 63.1377C230.446 63.1377 234.071 61.2648 236.454 58.3818V60.4551C236.454 60.5646 236.418 60.6719 236.358 60.7734C236.302 60.8684 236.233 60.9424 236.187 60.9883C233.57 63.2128 230.142 64.6045 226.3 64.6045C217.732 64.6044 210.821 57.8158 210.821 49.5371C210.821 41.223 217.729 34.5167 226.3 34.5166Z" fill="#212121" stroke="#FF0C0C"/>
<path d="M81.6468 91.8433L84.3855 98.1119L87.1795 91.8433H88.1608L84.5834 99.7618C84.4408 100.086 84.2879 100.353 84.1243 100.564C83.9659 100.775 83.7838 100.944 83.5781 101.072C83.3776 101.201 83.1534 101.291 82.9054 101.343C82.652 101.394 82.3672 101.42 82.0506 101.42C81.9345 101.42 81.8184 101.412 81.7023 101.396C81.5862 101.386 81.4727 101.371 81.362 101.35C81.2564 101.335 81.1588 101.314 81.0692 101.288C80.9794 101.268 80.9054 101.245 80.8475 101.219L81.1483 100.44C81.2802 100.492 81.4306 100.535 81.5993 100.572C81.7736 100.607 81.9423 100.625 82.1058 100.625C82.4911 100.625 82.8129 100.548 83.0716 100.394C83.3301 100.235 83.5411 99.9701 83.7047 99.5999L83.8551 99.2068L80.6338 91.8433H81.6468Z" fill="#212121"/>
<path d="M91.778 94.727V91.8433H92.7119V94.4031C92.7119 94.8915 92.7436 95.3002 92.8068 95.6292C92.8701 95.9581 92.9811 96.2202 93.1393 96.4156C93.2924 96.6109 93.5034 96.7496 93.7724 96.832C94.0416 96.9192 94.3819 96.9629 94.7935 96.9629C95.1841 96.9629 95.6035 96.9218 96.0521 96.8396C96.5058 96.7575 96.9412 96.647 97.3579 96.5081V91.8433H98.3157V101.219H97.3737V97.2483C96.8884 97.4024 96.4162 97.5259 95.9571 97.6184C95.4927 97.7058 95.0495 97.7495 94.6272 97.7495C94.1207 97.7495 93.6882 97.6929 93.3292 97.5799C92.9653 97.4718 92.6698 97.2945 92.4427 97.0477C92.2105 96.8063 92.0418 96.4927 91.9362 96.1071C91.8308 95.7267 91.778 95.2666 91.778 94.727Z" fill="#212121"/>
<path d="M109.002 101.219H103.311V91.8433H109.002V92.6683H104.245V95.8373H108.337V96.67H104.245V100.386H109.002V101.219Z" fill="#212121"/>
<path d="M114.502 92.6453V95.899H116.481C117.114 95.899 117.652 95.9504 118.096 96.0532C118.534 96.1611 118.89 96.3231 119.164 96.5388C119.444 96.7496 119.644 97.0196 119.766 97.3485C119.892 97.6775 119.956 98.0631 119.956 98.505C119.956 99.4045 119.663 100.083 119.077 100.541C118.497 100.993 117.631 101.219 116.481 101.219H113.56V91.8433H119.37V92.6453H114.502ZM118.958 98.5206C118.958 98.1657 118.908 97.8728 118.808 97.6414C118.702 97.4103 118.544 97.2226 118.333 97.0787C118.122 96.9398 117.853 96.8423 117.526 96.7856C117.198 96.7241 116.813 96.6931 116.37 96.6931H114.502V100.417H116.141C116.584 100.417 116.98 100.386 117.328 100.325C117.681 100.268 117.977 100.168 118.214 100.024C118.457 99.88 118.642 99.6847 118.768 99.4379C118.895 99.1964 118.958 98.8906 118.958 98.5206Z" fill="#212121"/>
<path d="M130.878 101.219H129.936V96.7856H125.25V101.219H124.308V91.8433H125.25V95.9528H129.936V91.8433H130.878V101.219Z" fill="#212121"/>
<path d="M143.692 101.219V91.8433H144.634V101.219H143.692ZM138.405 101.219H135.856V91.8433H136.798V95.5674H138.373C139.017 95.5674 139.563 95.6265 140.012 95.7447C140.455 95.863 140.819 96.0403 141.104 96.2767C141.384 96.5131 141.584 96.8089 141.706 97.1635C141.832 97.5182 141.895 97.9319 141.895 98.4048C141.895 99.3764 141.6 100.088 141.009 100.541C140.413 100.993 139.545 101.219 138.405 101.219ZM140.89 98.3894C140.89 97.9987 140.84 97.6748 140.74 97.418C140.645 97.1609 140.492 96.9552 140.281 96.801C140.07 96.6469 139.798 96.5364 139.466 96.4696C139.128 96.4079 138.724 96.3769 138.255 96.3769H136.798V100.417H138.35C138.772 100.417 139.141 100.381 139.458 100.309C139.774 100.237 140.041 100.119 140.257 99.9545C140.468 99.7902 140.626 99.5794 140.732 99.3224C140.837 99.0653 140.89 98.7544 140.89 98.3894Z" fill="#212121"/>
<path d="M150.752 101.219H149.621V91.8428H150.531V99.9156L155.074 91.8428H156.435V101.219H155.525V92.8221L150.752 101.219ZM154.235 89.2368H155.177C155.171 89.4526 155.129 89.6609 155.05 89.8613C154.976 90.0619 154.852 90.2392 154.678 90.3932C154.504 90.5528 154.277 90.6787 153.998 90.7712C153.713 90.8637 153.37 90.9098 152.968 90.9098C152.605 90.9098 152.291 90.8637 152.027 90.7712C151.758 90.6787 151.536 90.5528 151.362 90.3932C151.188 90.2392 151.061 90.0619 150.982 89.8613C150.897 89.6609 150.853 89.4526 150.847 89.2368H151.773C151.816 89.5864 151.926 89.8586 152.106 90.054C152.291 90.2443 152.573 90.3394 152.953 90.3394C153.185 90.3394 153.378 90.3188 153.53 90.2777C153.684 90.2313 153.81 90.1621 153.91 90.0696C154.005 89.9771 154.077 89.8613 154.124 89.7226C154.177 89.5888 154.214 89.4269 154.235 89.2368Z" fill="#212121"/>
<path d="M174.022 101.219H167.389V91.8433H168.331V100.386H172.827V91.8433H173.768V100.417H174.948V103H174.022V101.219Z" fill="#212121"/>
<path d="M184.676 101.219H178.977V91.8433H184.676V92.6683H179.911V95.8373H184.003V96.67H179.911V100.386H184.676V101.219Z" fill="#212121"/>
<path d="M195.796 101.219H194.862V96.7856H190.169V101.219H189.235V91.8433H190.169V95.9528H194.862V91.8433H195.796V101.219Z" fill="#212121"/>
<path d="M207.249 92.6683H203.941V101.219H202.999V92.6683H199.699V91.8433H207.249V92.6683Z" fill="#212121"/>
<path d="M217.047 94.7733C217.047 95.3387 216.982 95.8219 216.85 96.2229C216.713 96.6186 216.507 96.9425 216.232 97.1943C215.958 97.4461 215.612 97.6287 215.195 97.7416C214.779 97.8548 214.285 97.9113 213.715 97.9113H212.109V101.219H211.175V91.8433H213.834C214.942 91.8433 215.755 92.0876 216.272 92.5758C216.789 93.059 217.047 93.7916 217.047 94.7733ZM216.042 94.7964C216.042 94.3903 215.99 94.0511 215.884 93.7786C215.779 93.5062 215.628 93.2878 215.433 93.1232C215.238 92.9639 214.998 92.8483 214.713 92.7762C214.428 92.7044 214.106 92.6683 213.747 92.6683H212.109V97.0787H213.565C213.998 97.0787 214.37 97.0427 214.681 96.9706C214.992 96.9038 215.248 96.7856 215.449 96.616C215.649 96.4463 215.797 96.2152 215.892 95.9221C215.992 95.6292 216.042 95.2539 216.042 94.7964Z" fill="#212121"/>
</svg>
