<svg width="375" height="133" viewBox="0 0 375 133" fill="none" xmlns="http://www.w3.org/2000/svg">
<path d="M63.8297 124.888H6.9353V6.75842H368.067V124.888H311.395" stroke="white" stroke-width="2.2492" stroke-miterlimit="10"/>
<path d="M98.0994 48.6034V48.4986C98.0994 47.6319 97.3702 46.9175 96.4853 46.9175H82.2618C81.3771 46.9175 80.6479 47.6319 80.6479 48.4986V82.4725C80.6479 83.3394 81.3771 84.0536 82.2618 84.0536H82.4173C83.302 84.0536 84.0216 83.3394 84.0216 82.4725V50.7371C84.0216 50.3275 84.1771 50.1749 84.6438 50.1749H96.4853C97.3702 50.1749 98.0994 49.4605 98.0994 48.6034Z" fill="white"/>
<path d="M124.155 80.7391H107.802C107.335 80.7391 107.228 80.5869 107.228 80.1295V67.2144C107.228 66.757 107.384 66.6523 107.909 66.6523H121.199C122.084 66.6523 122.803 65.9381 122.803 65.081V64.9762C122.803 64.1093 122.084 63.3951 121.199 63.3951H107.802C107.335 63.3951 107.228 63.2426 107.228 62.7377V50.7371C107.228 50.3275 107.384 50.1749 107.909 50.1749H123.173C124.057 50.1749 124.777 49.4605 124.777 48.6034V48.4986C124.777 47.6319 124.057 46.9175 123.173 46.9175H105.469C104.584 46.9175 103.913 47.6319 103.913 48.4986V82.4725C103.913 83.3394 104.584 84.0536 105.469 84.0536H124.155C125.04 84.0536 125.769 83.3394 125.769 82.4725V82.3202C125.769 81.4535 125.04 80.7391 124.155 80.7391Z" fill="white"/>
<path d="M158.426 46.9175H158.27C157.386 46.9175 156.656 47.6319 156.656 48.4986V62.8903C156.656 63.1473 156.452 63.3951 156.19 63.3951H136.823C136.56 63.3951 136.356 63.1473 136.356 62.8903V48.4986C136.356 47.6319 135.627 46.9175 134.752 46.9175H134.597C133.712 46.9175 132.983 47.6319 132.983 48.4986V82.4725C132.983 83.3394 133.712 84.0536 134.597 84.0536H134.752C135.627 84.0536 136.356 83.3394 136.356 82.4725V67.1666C136.356 66.8618 136.56 66.6523 136.823 66.6523H156.19C156.452 66.6523 156.656 66.8618 156.656 67.1666V82.4725C156.656 83.3394 157.386 84.0536 158.27 84.0536H158.426C159.301 84.0536 160.03 83.3394 160.03 82.4725V48.4986C160.03 47.6319 159.301 46.9175 158.426 46.9175Z" fill="white"/>
<path d="M188.691 80.7391H172.338C171.872 80.7391 171.765 80.5869 171.765 80.1295V67.2144C171.765 66.757 171.92 66.6523 172.436 66.6523H185.726C186.611 66.6523 187.34 65.9381 187.34 65.081V64.9762C187.34 64.1093 186.611 63.3951 185.726 63.3951H172.338C171.872 63.3951 171.765 63.2426 171.765 62.7377V50.7371C171.765 50.3275 171.92 50.1749 172.436 50.1749H187.699C188.584 50.1749 189.313 49.4605 189.313 48.6034V48.4986C189.313 47.6319 188.584 46.9175 187.699 46.9175H169.995C169.12 46.9175 168.44 47.6319 168.44 48.4986V82.4725C168.44 83.3394 169.12 84.0536 169.995 84.0536H188.691C189.576 84.0536 190.295 83.3394 190.295 82.4725V82.3202C190.295 81.4535 189.576 80.7391 188.691 80.7391Z" fill="white"/>
<path d="M215.321 64.5188C214.183 63.8044 214.339 63.7094 215.272 62.9378C217.45 61.2139 219.005 58.7757 219.005 55.8706C219.005 50.5275 213.405 46.3082 207.689 46.3082C204.733 46.3082 201.719 47.3749 199.59 49.2608C197.928 50.7371 199.697 53.0228 201.719 51.5465C203.43 50.2797 205.511 49.3083 207.689 49.3083C211.636 49.3083 215.894 52.2134 215.894 55.8706C215.894 59.4803 212.628 62.4329 208.68 62.4329H202.137C201.253 62.4329 200.523 63.1473 200.523 64.014V64.1665C200.523 65.0237 201.253 65.7381 202.137 65.7381H208.68C213.61 65.7381 217.401 68.7382 217.401 73.5672C217.401 78.4057 212.628 81.6631 207.689 81.6631C204.529 81.6631 201.564 80.1868 199.59 78.0436C197.986 76.2627 195.643 78.1008 197.053 79.8247C199.435 82.8251 203.43 84.7109 207.689 84.7109C214.339 84.7109 220.512 80.082 220.512 73.5672C220.512 69.5574 218.383 66.4525 215.321 64.5188Z" fill="white"/>
<path d="M253.586 84.0536C254.471 84.0536 255.191 83.3394 255.191 82.4725V48.5464C255.191 47.8892 254.724 47.3271 254.102 47.0701C253.372 46.7652 252.546 46.9748 252.079 47.6319C252.079 47.6319 233.442 74.1863 232.664 75.3005C231.828 76.4723 231.361 76.2627 231.361 74.6912C231.361 73.1101 231.361 48.4986 231.361 48.4986C231.361 47.6319 230.642 46.9175 229.757 46.9175H229.602C228.717 46.9175 227.988 47.6319 227.988 48.4986V82.425C227.988 82.9298 228.406 83.6917 228.979 83.8918C229.757 84.2061 230.583 84.0536 231.05 83.3869C231.05 83.3869 249.746 56.7373 250.679 55.461C251.564 54.1467 251.817 54.6038 251.817 55.9184C251.817 57.2421 251.817 82.4725 251.817 82.4725C251.817 83.3394 252.546 84.0536 253.431 84.0536H253.586Z" fill="white"/>
<path d="M282.452 46.3082C271.602 46.3082 262.823 54.8516 262.823 65.4808C262.823 76.0627 271.602 84.7109 282.452 84.7109C287.332 84.7109 291.69 82.9298 295.013 80.082C295.169 79.9295 295.538 79.5199 295.538 78.9675C295.538 78.7105 295.538 76.9294 295.538 75.7101C295.538 75.1483 295.169 75.1007 294.857 75.5006C292.057 79.2153 287.595 81.6631 282.452 81.6631C273.469 81.6631 266.148 74.2816 266.148 65.4808C266.148 56.6898 273.469 49.3655 282.452 49.3655C287.595 49.3655 292.057 51.756 294.857 55.461C295.169 55.8706 295.538 55.8231 295.538 55.2135C295.538 53.9942 295.538 52.2609 295.538 51.956C295.538 51.4512 295.169 50.9941 295.013 50.8893C291.797 48.1938 287.332 46.3082 282.452 46.3082Z" fill="white"/>
<path d="M104.769 117.741L108.133 125.484L111.564 117.741H112.77L108.376 127.523C108.2 127.923 108.013 128.253 107.812 128.513C107.617 128.774 107.394 128.983 107.141 129.142C106.895 129.3 106.619 129.412 106.314 129.475C106.003 129.539 105.653 129.57 105.264 129.57C105.122 129.57 104.979 129.561 104.837 129.542C104.694 129.529 104.555 129.51 104.419 129.485C104.289 129.466 104.169 129.44 104.059 129.408C103.949 129.383 103.858 129.354 103.787 129.323L104.156 128.361C104.318 128.424 104.503 128.478 104.71 128.523C104.924 128.567 105.131 128.589 105.332 128.589C105.806 128.589 106.201 128.494 106.519 128.304C106.836 128.107 107.095 127.78 107.296 127.323L107.481 126.837L103.524 117.741H104.769Z" fill="white"/>
<path d="M117.213 121.303V117.741H118.36V120.903C118.36 121.506 118.399 122.011 118.477 122.418C118.554 122.824 118.691 123.148 118.885 123.389C119.073 123.63 119.332 123.802 119.663 123.903C119.993 124.011 120.411 124.065 120.917 124.065C121.397 124.065 121.912 124.014 122.463 123.913C123.02 123.811 123.555 123.675 124.067 123.503V117.741H125.243V129.323H124.086V124.418C123.49 124.608 122.91 124.761 122.346 124.875C121.776 124.983 121.231 125.037 120.713 125.037C120.091 125.037 119.559 124.967 119.118 124.827C118.671 124.694 118.308 124.475 118.029 124.17C117.744 123.872 117.537 123.484 117.407 123.008C117.278 122.538 117.213 121.97 117.213 121.303Z" fill="white"/>
<path d="M138.369 129.323H131.379V117.741H138.369V118.76H132.526V122.675H137.552V123.703H132.526V128.294H138.369V129.323Z" fill="white"/>
<path d="M145.126 118.732V122.751H147.556C148.334 122.751 148.995 122.814 149.54 122.941C150.078 123.075 150.515 123.275 150.852 123.541C151.196 123.802 151.442 124.135 151.591 124.541C151.747 124.948 151.825 125.424 151.825 125.97C151.825 127.081 151.465 127.919 150.745 128.485C150.033 129.043 148.969 129.323 147.556 129.323H143.969V117.741H151.105V118.732H145.126ZM150.599 125.989C150.599 125.551 150.538 125.189 150.415 124.903C150.285 124.618 150.091 124.386 149.831 124.208C149.572 124.037 149.242 123.916 148.84 123.846C148.438 123.77 147.965 123.732 147.42 123.732H145.126V128.332H147.138C147.683 128.332 148.169 128.294 148.597 128.218C149.031 128.148 149.394 128.024 149.686 127.846C149.984 127.669 150.211 127.427 150.366 127.122C150.522 126.824 150.599 126.446 150.599 125.989Z" fill="white"/>
<path d="M165.241 129.323H164.084V123.846H158.328V129.323H157.171V117.741H158.328V122.817H164.084V117.741H165.241V129.323Z" fill="white"/>
<path d="M180.981 129.323V117.741H182.138V129.323H180.981ZM174.486 129.323H171.356V117.741H172.513V122.341H174.448C175.238 122.341 175.909 122.414 176.46 122.56C177.005 122.706 177.452 122.925 177.802 123.217C178.145 123.51 178.392 123.875 178.541 124.313C178.696 124.751 178.774 125.262 178.774 125.846C178.774 127.046 178.411 127.926 177.685 128.485C176.953 129.043 175.887 129.323 174.486 129.323ZM177.539 125.827C177.539 125.345 177.478 124.945 177.355 124.627C177.238 124.31 177.05 124.056 176.791 123.865C176.531 123.675 176.198 123.538 175.789 123.456C175.374 123.379 174.879 123.341 174.302 123.341H172.513V128.332H174.419C174.937 128.332 175.391 128.288 175.78 128.199C176.169 128.11 176.496 127.964 176.762 127.761C177.021 127.558 177.215 127.297 177.345 126.98C177.474 126.662 177.539 126.278 177.539 125.827Z" fill="white"/>
<path d="M189.653 129.323H188.263V117.741H189.381V127.713L194.962 117.741H196.634V129.323H195.516V118.951L189.653 129.323ZM193.931 114.522H195.088C195.082 114.788 195.03 115.046 194.933 115.293C194.842 115.541 194.69 115.76 194.476 115.95C194.262 116.147 193.983 116.303 193.64 116.417C193.29 116.531 192.868 116.588 192.376 116.588C191.929 116.588 191.543 116.531 191.219 116.417C190.888 116.303 190.616 116.147 190.402 115.95C190.188 115.76 190.033 115.541 189.935 115.293C189.832 115.046 189.777 114.788 189.77 114.522H190.908C190.96 114.954 191.096 115.29 191.316 115.531C191.543 115.766 191.889 115.884 192.356 115.884C192.641 115.884 192.878 115.858 193.066 115.807C193.254 115.75 193.409 115.665 193.533 115.55C193.649 115.436 193.737 115.293 193.795 115.122C193.86 114.957 193.905 114.756 193.931 114.522Z" fill="white"/>
<path d="M218.236 129.323H210.089V117.741H211.246V128.294H216.768V117.741H217.925V128.332H219.374V131.523H218.236V129.323Z" fill="white"/>
<path d="M231.323 129.323H224.323V117.741H231.323V118.76H225.47V122.675H230.497V123.703H225.47V128.294H231.323V129.323Z" fill="white"/>
<path d="M244.982 129.323H243.835V123.846H238.07V129.323H236.923V117.741H238.07V122.817H243.835V117.741H244.982V129.323Z" fill="white"/>
<path d="M259.051 118.76H254.987V129.323H253.83V118.76H249.776V117.741H259.051V118.76Z" fill="white"/>
<path d="M271.086 121.36C271.086 122.059 271.005 122.656 270.843 123.151C270.675 123.64 270.422 124.04 270.085 124.351C269.748 124.662 269.323 124.888 268.811 125.027C268.299 125.167 267.693 125.237 266.993 125.237H265.02V129.323H263.872V117.741H267.139C268.5 117.741 269.498 118.043 270.134 118.646C270.769 119.243 271.086 120.148 271.086 121.36ZM269.852 121.389C269.852 120.887 269.787 120.468 269.657 120.132C269.528 119.795 269.343 119.525 269.103 119.322C268.863 119.125 268.568 118.982 268.218 118.893C267.868 118.805 267.473 118.76 267.032 118.76H265.02V124.208H266.808C267.34 124.208 267.797 124.164 268.179 124.075C268.562 123.992 268.876 123.846 269.122 123.637C269.369 123.427 269.55 123.141 269.667 122.779C269.79 122.418 269.852 121.954 269.852 121.389Z" fill="white"/>
</svg>
