<svg width="499" height="292" viewBox="0 0 499 292" fill="none" xmlns="http://www.w3.org/2000/svg">
<path d="M160.584 197.583H109V91H436.426V197.583H385.044" stroke="#212121" stroke-width="2.2492" stroke-miterlimit="10"/>
<path d="M191.656 128.755V128.66C191.656 127.878 190.994 127.234 190.192 127.234H177.296C176.494 127.234 175.833 127.878 175.833 128.66V159.314C175.833 160.096 176.494 160.74 177.296 160.74H177.437C178.239 160.74 178.892 160.096 178.892 159.314V130.68C178.892 130.311 179.033 130.173 179.456 130.173H190.192C190.994 130.173 191.656 129.528 191.656 128.755Z" fill="#212121"/>
<path d="M215.279 157.75H200.452C200.029 157.75 199.932 157.612 199.932 157.2V145.547C199.932 145.134 200.073 145.04 200.549 145.04H212.599C213.401 145.04 214.054 144.395 214.054 143.622V143.527C214.054 142.745 213.401 142.101 212.599 142.101H200.452C200.029 142.101 199.932 141.963 199.932 141.508V130.68C199.932 130.311 200.073 130.173 200.549 130.173H214.389C215.191 130.173 215.843 129.528 215.843 128.755V128.66C215.843 127.878 215.191 127.234 214.389 127.234H198.337C197.535 127.234 196.927 127.878 196.927 128.66V159.314C196.927 160.096 197.535 160.74 198.337 160.74H215.279C216.081 160.74 216.742 160.096 216.742 159.314V159.176C216.742 158.394 216.081 157.75 215.279 157.75Z" fill="#212121"/>
<path d="M246.351 127.234H246.21C245.408 127.234 244.747 127.878 244.747 128.66V141.645C244.747 141.877 244.562 142.101 244.324 142.101H226.765C226.527 142.101 226.342 141.877 226.342 141.645V128.66C226.342 127.878 225.681 127.234 224.887 127.234H224.746C223.944 127.234 223.283 127.878 223.283 128.66V159.314C223.283 160.096 223.944 160.74 224.746 160.74H224.887C225.681 160.74 226.342 160.096 226.342 159.314V145.504C226.342 145.229 226.527 145.04 226.765 145.04H244.324C244.562 145.04 244.747 145.229 244.747 145.504V159.314C244.747 160.096 245.408 160.74 246.21 160.74H246.351C247.145 160.74 247.806 160.096 247.806 159.314V128.66C247.806 127.878 247.145 127.234 246.351 127.234Z" fill="#212121"/>
<path d="M273.792 157.75H258.965C258.542 157.75 258.445 157.612 258.445 157.2V145.547C258.445 145.134 258.586 145.04 259.053 145.04H271.103C271.905 145.04 272.567 144.395 272.567 143.622V143.527C272.567 142.745 271.905 142.101 271.103 142.101H258.965C258.542 142.101 258.445 141.963 258.445 141.508V130.68C258.445 130.311 258.586 130.173 259.053 130.173H272.893C273.695 130.173 274.356 129.528 274.356 128.755V128.66C274.356 127.878 273.695 127.234 272.893 127.234H256.841C256.048 127.234 255.431 127.878 255.431 128.66V159.314C255.431 160.096 256.048 160.74 256.841 160.74H273.792C274.594 160.74 275.246 160.096 275.246 159.314V159.176C275.246 158.394 274.594 157.75 273.792 157.75Z" fill="#212121"/>
<path d="M297.936 143.115C296.905 142.47 297.046 142.384 297.892 141.688C299.867 140.133 301.277 137.933 301.277 135.312C301.277 130.491 296.2 126.684 291.016 126.684C288.337 126.684 285.604 127.647 283.674 129.348C282.167 130.68 283.771 132.742 285.604 131.41C287.156 130.267 289.042 129.391 291.016 129.391C294.595 129.391 298.456 132.012 298.456 135.312C298.456 138.569 295.495 141.233 291.916 141.233H285.983C285.181 141.233 284.52 141.877 284.52 142.659V142.797C284.52 143.57 285.181 144.215 285.983 144.215H291.916C296.385 144.215 299.822 146.922 299.822 151.279C299.822 155.644 295.495 158.583 291.016 158.583C288.152 158.583 285.463 157.251 283.674 155.318C282.219 153.711 280.095 155.369 281.373 156.925C283.533 159.632 287.156 161.333 291.016 161.333C297.046 161.333 302.643 157.157 302.643 151.279C302.643 147.661 300.713 144.859 297.936 143.115Z" fill="#212121"/>
<path d="M332.63 160.74C333.433 160.74 334.085 160.096 334.085 159.314V128.704C334.085 128.111 333.662 127.603 333.098 127.372C332.436 127.096 331.687 127.286 331.264 127.878C331.264 127.878 314.366 151.837 313.661 152.843C312.903 153.9 312.48 153.711 312.48 152.293C312.48 150.866 312.48 128.66 312.48 128.66C312.48 127.878 311.827 127.234 311.025 127.234H310.884C310.082 127.234 309.421 127.878 309.421 128.66V159.271C309.421 159.726 309.8 160.414 310.32 160.594C311.025 160.878 311.774 160.74 312.197 160.139C312.197 160.139 329.148 136.094 329.995 134.942C330.797 133.757 331.026 134.169 331.026 135.355C331.026 136.549 331.026 159.314 331.026 159.314C331.026 160.096 331.687 160.74 332.489 160.74H332.63Z" fill="#212121"/>
<path d="M358.802 126.684C348.965 126.684 341.005 134.392 341.005 143.983C341.005 153.53 348.965 161.333 358.802 161.333C363.226 161.333 367.177 159.726 370.19 157.157C370.332 157.019 370.667 156.65 370.667 156.151C370.667 155.919 370.667 154.312 370.667 153.212C370.667 152.705 370.332 152.662 370.049 153.023C367.51 156.375 363.465 158.583 358.802 158.583C350.657 158.583 344.02 151.923 344.02 143.983C344.02 136.051 350.657 129.443 358.802 129.443C363.465 129.443 367.51 131.599 370.049 134.942C370.332 135.312 370.667 135.269 370.667 134.719C370.667 133.619 370.667 132.055 370.667 131.78C370.667 131.324 370.332 130.912 370.19 130.817C367.274 128.385 363.226 126.684 358.802 126.684Z" fill="#212121"/>
<path d="M197.702 191.135L200.752 198.121L203.864 191.135H204.957L200.973 199.96C200.814 200.321 200.643 200.619 200.461 200.854C200.285 201.089 200.082 201.278 199.853 201.421C199.63 201.564 199.38 201.665 199.104 201.722C198.822 201.78 198.504 201.808 198.152 201.808C198.022 201.808 197.893 201.799 197.764 201.782C197.635 201.771 197.508 201.754 197.385 201.731C197.267 201.714 197.159 201.691 197.059 201.662C196.959 201.639 196.876 201.613 196.812 201.585L197.147 200.717C197.294 200.774 197.461 200.823 197.649 200.863C197.843 200.903 198.031 200.923 198.213 200.923C198.642 200.923 199.001 200.837 199.289 200.665C199.577 200.487 199.812 200.193 199.994 199.78L200.161 199.342L196.574 191.135H197.702Z" fill="#212121"/>
<path d="M208.985 194.349V191.135H210.025V193.988C210.025 194.532 210.06 194.988 210.131 195.354C210.201 195.721 210.325 196.013 210.501 196.231C210.672 196.449 210.907 196.603 211.206 196.695C211.506 196.792 211.885 196.841 212.343 196.841C212.778 196.841 213.246 196.795 213.745 196.703C214.25 196.612 214.735 196.489 215.199 196.334V191.135H216.266V201.585H215.217V197.159C214.677 197.331 214.151 197.468 213.639 197.571C213.122 197.669 212.629 197.718 212.158 197.718C211.594 197.718 211.112 197.654 210.713 197.529C210.307 197.408 209.978 197.21 209.725 196.935C209.467 196.666 209.279 196.317 209.161 195.887C209.044 195.463 208.985 194.95 208.985 194.349Z" fill="#212121"/>
<path d="M228.167 201.585H221.829V191.135H228.167V192.054H222.869V195.586H227.426V196.514H222.869V200.656H228.167V201.585Z" fill="#212121"/>
<path d="M234.293 192.029V195.655H236.497C237.202 195.655 237.801 195.712 238.295 195.827C238.783 195.947 239.179 196.128 239.485 196.368C239.796 196.603 240.02 196.904 240.155 197.271C240.296 197.637 240.366 198.067 240.366 198.56C240.366 199.562 240.04 200.318 239.388 200.828C238.742 201.333 237.778 201.585 236.497 201.585H233.244V191.135H239.714V192.029H234.293ZM239.256 198.577C239.256 198.181 239.2 197.855 239.088 197.597C238.971 197.339 238.794 197.13 238.559 196.97C238.324 196.815 238.025 196.706 237.66 196.643C237.296 196.575 236.867 196.54 236.373 196.54H234.293V200.691H236.118C236.611 200.691 237.052 200.656 237.44 200.588C237.834 200.525 238.163 200.413 238.427 200.253C238.697 200.092 238.903 199.874 239.044 199.599C239.185 199.33 239.256 198.989 239.256 198.577Z" fill="#212121"/>
<path d="M252.53 201.585H251.481V196.643H246.263V201.585H245.214V191.135H246.263V195.715H251.481V191.135H252.53V201.585Z" fill="#212121"/>
<path d="M266.802 201.585V191.135H267.851V201.585H266.802ZM260.913 201.585H258.075V191.135H259.124V195.286H260.878C261.595 195.286 262.203 195.351 262.703 195.483C263.196 195.615 263.602 195.813 263.919 196.076C264.23 196.34 264.454 196.669 264.589 197.064C264.73 197.46 264.801 197.921 264.801 198.448C264.801 199.531 264.471 200.324 263.813 200.828C263.149 201.333 262.182 201.585 260.913 201.585ZM263.681 198.431C263.681 197.995 263.625 197.634 263.513 197.348C263.408 197.062 263.237 196.832 263.002 196.66C262.767 196.489 262.465 196.366 262.094 196.291C261.718 196.222 261.269 196.188 260.746 196.188H259.124V200.691H260.852C261.322 200.691 261.733 200.651 262.085 200.571C262.438 200.49 262.735 200.359 262.976 200.175C263.211 199.992 263.387 199.757 263.505 199.471C263.622 199.184 263.681 198.838 263.681 198.431Z" fill="#212121"/>
<path d="M274.664 201.584H273.404V191.134H274.418V200.132L279.477 191.134H280.994V201.584H279.98V192.226L274.664 201.584ZM278.543 188.23H279.592C279.586 188.47 279.539 188.703 279.451 188.926C279.369 189.15 279.231 189.347 279.037 189.519C278.843 189.697 278.59 189.837 278.279 189.94C277.961 190.043 277.579 190.095 277.133 190.095C276.727 190.095 276.378 190.043 276.084 189.94C275.784 189.837 275.537 189.697 275.343 189.519C275.149 189.347 275.008 189.15 274.92 188.926C274.826 188.703 274.776 188.47 274.77 188.23H275.802C275.849 188.62 275.972 188.923 276.172 189.141C276.378 189.353 276.692 189.459 277.115 189.459C277.373 189.459 277.588 189.436 277.758 189.39C277.929 189.338 278.07 189.261 278.182 189.158C278.287 189.055 278.367 188.926 278.42 188.771C278.478 188.622 278.52 188.442 278.543 188.23Z" fill="#212121"/>
<path d="M300.579 201.585H293.193V191.135H294.242V200.656H299.248V191.135H300.297V200.691H301.611V203.57H300.579V201.585Z" fill="#212121"/>
<path d="M312.445 201.585H306.098V191.135H312.445V192.054H307.138V195.586H311.696V196.514H307.138V200.656H312.445V201.585Z" fill="#212121"/>
<path d="M324.829 201.585H323.789V196.643H318.562V201.585H317.522V191.135H318.562V195.715H323.789V191.135H324.829V201.585Z" fill="#212121"/>
<path d="M337.585 192.054H333.9V201.585H332.851V192.054H329.176V191.135H337.585V192.054Z" fill="#212121"/>
<path d="M348.497 194.4C348.497 195.031 348.423 195.569 348.276 196.016C348.124 196.457 347.895 196.818 347.589 197.099C347.284 197.379 346.899 197.583 346.434 197.709C345.97 197.835 345.42 197.898 344.786 197.898H342.997V201.585H341.956V191.135H344.918C346.152 191.135 347.057 191.407 347.633 191.951C348.209 192.49 348.497 193.306 348.497 194.4ZM347.378 194.426C347.378 193.974 347.319 193.595 347.201 193.292C347.084 192.988 346.916 192.745 346.699 192.561C346.481 192.384 346.214 192.255 345.896 192.175C345.579 192.095 345.221 192.054 344.821 192.054H342.997V196.97H344.618C345.1 196.97 345.515 196.93 345.861 196.849C346.208 196.775 346.493 196.643 346.716 196.454C346.94 196.265 347.104 196.008 347.21 195.681C347.322 195.354 347.378 194.936 347.378 194.426Z" fill="#212121"/>
<path d="M498 29L20 29M498 89L20 89" stroke="#B3B3B3"/>
<path d="M498 203L20 203M498 263L20 263" stroke="#B3B3B3"/>
<path d="M0.252 152L4.356 146.672L4.338 147.554L0.432 142.46H2.358L5.346 146.384H4.608L7.596 142.46H9.486L5.526 147.59L5.544 146.672L9.684 152H7.722L4.572 147.824L5.274 147.932L2.178 152H0.252Z" fill="#212121"/>
<path d="M11.252 65L15.356 59.672L15.338 60.554L11.432 55.46H13.358L16.346 59.384H15.608L18.596 55.46H20.486L16.526 60.59L16.544 59.672L20.684 65H18.722L15.572 60.824L16.274 60.932L13.178 65H11.252ZM20.6034 66.8L26.5434 49.844H28.1094L22.1694 66.8H20.6034ZM28.1015 65V63.776L33.2315 58.826C33.6875 58.394 34.0235 58.016 34.2395 57.692C34.4675 57.356 34.6175 57.05 34.6895 56.774C34.7735 56.486 34.8155 56.21 34.8155 55.946C34.8155 55.298 34.5875 54.788 34.1315 54.416C33.6755 54.044 33.0095 53.858 32.1335 53.858C31.4615 53.858 30.8555 53.972 30.3155 54.2C29.7755 54.416 29.3075 54.758 28.9115 55.226L27.6875 54.164C28.1675 53.552 28.8095 53.084 29.6135 52.76C30.4295 52.424 31.3235 52.256 32.2955 52.256C33.1715 52.256 33.9335 52.4 34.5815 52.688C35.2295 52.964 35.7275 53.366 36.0755 53.894C36.4355 54.422 36.6155 55.046 36.6155 55.766C36.6155 56.174 36.5615 56.576 36.4535 56.972C36.3455 57.368 36.1415 57.788 35.8415 58.232C35.5415 58.676 35.1095 59.174 34.5455 59.726L29.9735 64.136L29.5415 63.434H37.1555V65H28.1015Z" fill="#212121"/>
<path d="M498 292L498 2.74181e-06M438 292L438 -9.82681e-07" stroke="#B3B3B3"/>
<path d="M107 292L107 2.74181e-06M47 292L47 -9.82681e-07" stroke="#B3B3B3"/>
<rect x="46" y="29" width="2" height="60" rx="1" fill="#E78D27"/>
<rect x="20" y="89" width="2" height="114" rx="1" fill="#E78D27"/>
</svg>
