<svg width="18" height="18" viewBox="0 0 18 18" fill="none" xmlns="http://www.w3.org/2000/svg">
<g clip-path="url(#clip0_9_146)">
<path d="M17.3864 6.36137C17.2841 4.58183 16.4864 2.96592 15.1568 1.80001C13.8273 0.613646 12.1295 9.47714e-06 10.35 0.122737C8.57046 0.225009 6.93409 1.02274 5.74773 2.37274C3.45682 4.97046 3.55909 8.85683 5.87046 11.3523L4.78637 12.6L4.275 12.15L0.634094 16.2409L2.475 17.8977L6.11591 13.7659L5.68637 13.3977L6.77046 12.15C7.95682 13.0091 9.34773 13.4386 10.7182 13.4386C12.5591 13.4386 14.4 12.6818 15.7091 11.2091C16.9159 9.8591 17.5091 8.14092 17.3864 6.36137ZM14.8091 10.3909C12.825 12.6205 9.38864 12.825 7.11819 10.8614C4.88864 8.85683 4.68409 5.42046 6.64773 3.17046C7.60909 2.06592 8.9591 1.43183 10.4114 1.35001H10.7386C12.0682 1.35001 13.3364 1.84092 14.3386 2.74092C15.4227 3.70228 16.0773 5.01137 16.1591 6.46365C16.2614 7.89546 15.7705 9.28637 14.8091 10.3909Z" fill="#B6B6B6"/>
</g>
<defs>
<clipPath id="clip0_9_146">
<rect width="18" height="18" fill="white"/>
</clipPath>
</defs>
</svg>
